%TF.GenerationSoftware,KiCad,Pcbnew,8.0.7*%
%TF.CreationDate,2024-12-25T18:39:51+01:00*%
%TF.ProjectId,33120a,33333132-3061-42e6-9b69-6361645f7063,rev?*%
%TF.SameCoordinates,Original*%
%TF.FileFunction,Soldermask,Top*%
%TF.FilePolarity,Negative*%
%FSLAX46Y46*%
G04 Gerber Fmt 4.6, Leading zero omitted, Abs format (unit mm)*
G04 Created by KiCad (PCBNEW 8.0.7) date 2024-12-25 18:39:51*
%MOMM*%
%LPD*%
G01*
G04 APERTURE LIST*
G04 Aperture macros list*
%AMRoundRect*
0 Rectangle with rounded corners*
0 $1 Rounding radius*
0 $2 $3 $4 $5 $6 $7 $8 $9 X,Y pos of 4 corners*
0 Add a 4 corners polygon primitive as box body*
4,1,4,$2,$3,$4,$5,$6,$7,$8,$9,$2,$3,0*
0 Add four circle primitives for the rounded corners*
1,1,$1+$1,$2,$3*
1,1,$1+$1,$4,$5*
1,1,$1+$1,$6,$7*
1,1,$1+$1,$8,$9*
0 Add four rect primitives between the rounded corners*
20,1,$1+$1,$2,$3,$4,$5,0*
20,1,$1+$1,$4,$5,$6,$7,0*
20,1,$1+$1,$6,$7,$8,$9,0*
20,1,$1+$1,$8,$9,$2,$3,0*%
%AMFreePoly0*
4,1,9,3.862500,-0.866500,0.737500,-0.866500,0.737500,-0.450000,-0.737500,-0.450000,-0.737500,0.450000,0.737500,0.450000,0.737500,0.866500,3.862500,0.866500,3.862500,-0.866500,3.862500,-0.866500,$1*%
G04 Aperture macros list end*
%ADD10RoundRect,0.250000X-0.250000X-0.475000X0.250000X-0.475000X0.250000X0.475000X-0.250000X0.475000X0*%
%ADD11RoundRect,0.250000X0.450000X-0.262500X0.450000X0.262500X-0.450000X0.262500X-0.450000X-0.262500X0*%
%ADD12RoundRect,0.218750X-0.218750X-0.381250X0.218750X-0.381250X0.218750X0.381250X-0.218750X0.381250X0*%
%ADD13RoundRect,0.250000X-0.450000X0.262500X-0.450000X-0.262500X0.450000X-0.262500X0.450000X0.262500X0*%
%ADD14RoundRect,0.150000X-0.150000X0.825000X-0.150000X-0.825000X0.150000X-0.825000X0.150000X0.825000X0*%
%ADD15RoundRect,0.250000X-0.262500X-0.450000X0.262500X-0.450000X0.262500X0.450000X-0.262500X0.450000X0*%
%ADD16C,2.050000*%
%ADD17C,2.250000*%
%ADD18RoundRect,0.250000X0.475000X-0.250000X0.475000X0.250000X-0.475000X0.250000X-0.475000X-0.250000X0*%
%ADD19RoundRect,0.150000X-0.825000X-0.150000X0.825000X-0.150000X0.825000X0.150000X-0.825000X0.150000X0*%
%ADD20RoundRect,0.250000X0.250000X0.475000X-0.250000X0.475000X-0.250000X-0.475000X0.250000X-0.475000X0*%
%ADD21RoundRect,0.250000X0.262500X0.450000X-0.262500X0.450000X-0.262500X-0.450000X0.262500X-0.450000X0*%
%ADD22RoundRect,0.250000X-0.475000X0.250000X-0.475000X-0.250000X0.475000X-0.250000X0.475000X0.250000X0*%
%ADD23C,3.600000*%
%ADD24C,5.600000*%
%ADD25R,1.300000X0.900000*%
%ADD26FreePoly0,180.000000*%
%ADD27RoundRect,0.250000X-0.400000X-0.600000X0.400000X-0.600000X0.400000X0.600000X-0.400000X0.600000X0*%
%ADD28RoundRect,0.243750X-0.243750X-0.456250X0.243750X-0.456250X0.243750X0.456250X-0.243750X0.456250X0*%
%ADD29RoundRect,0.150000X0.150000X-0.587500X0.150000X0.587500X-0.150000X0.587500X-0.150000X-0.587500X0*%
%ADD30RoundRect,0.250000X-0.450000X-0.800000X0.450000X-0.800000X0.450000X0.800000X-0.450000X0.800000X0*%
%ADD31RoundRect,0.250000X0.400000X0.600000X-0.400000X0.600000X-0.400000X-0.600000X0.400000X-0.600000X0*%
%ADD32RoundRect,0.190000X-0.635000X-0.190000X0.635000X-0.190000X0.635000X0.190000X-0.635000X0.190000X0*%
%ADD33R,1.700000X1.700000*%
%ADD34C,1.700000*%
%ADD35RoundRect,0.250000X-0.600000X-0.600000X0.600000X-0.600000X0.600000X0.600000X-0.600000X0.600000X0*%
G04 APERTURE END LIST*
D10*
%TO.C,C123*%
X150942000Y-96901000D03*
X152842000Y-96901000D03*
%TD*%
D11*
%TO.C,R106*%
X144780000Y-103425000D03*
X144780000Y-101600000D03*
%TD*%
D10*
%TO.C,C101*%
X103927500Y-86360000D03*
X105827500Y-86360000D03*
%TD*%
D11*
%TO.C,R103*%
X116840000Y-92860500D03*
X116840000Y-91035500D03*
%TD*%
%TO.C,R143*%
X148648000Y-129944500D03*
X148648000Y-128119500D03*
%TD*%
D12*
%TO.C,FB101*%
X96473500Y-118872000D03*
X98598500Y-118872000D03*
%TD*%
D13*
%TO.C,R118*%
X131064000Y-107799500D03*
X131064000Y-109624500D03*
%TD*%
D14*
%TO.C,U106*%
X153035000Y-107761000D03*
X151765000Y-107761000D03*
X150495000Y-107761000D03*
X149225000Y-107761000D03*
X147955000Y-107761000D03*
X146685000Y-107761000D03*
X145415000Y-107761000D03*
X145415000Y-112711000D03*
X146685000Y-112711000D03*
X147955000Y-112711000D03*
X149225000Y-112711000D03*
X150495000Y-112711000D03*
X151765000Y-112711000D03*
X153035000Y-112711000D03*
%TD*%
D15*
%TO.C,R117*%
X109323500Y-97028000D03*
X111148500Y-97028000D03*
%TD*%
D16*
%TO.C,J2*%
X96520000Y-99060000D03*
D17*
X93980000Y-96520000D03*
X93980000Y-101600000D03*
X99060000Y-96520000D03*
X99060000Y-101600000D03*
%TD*%
D11*
%TO.C,R119*%
X133096000Y-109624500D03*
X133096000Y-107799500D03*
%TD*%
D13*
%TO.C,R139*%
X161036000Y-84685500D03*
X161036000Y-86510500D03*
%TD*%
D18*
%TO.C,C105*%
X138684000Y-110678000D03*
X138684000Y-108778000D03*
%TD*%
D19*
%TO.C,U104*%
X146877000Y-83566000D03*
X146877000Y-84836000D03*
X146877000Y-86106000D03*
X146877000Y-87376000D03*
X146877000Y-88646000D03*
X146877000Y-89916000D03*
X146877000Y-91186000D03*
X151827000Y-91186000D03*
X151827000Y-89916000D03*
X151827000Y-88646000D03*
X151827000Y-87376000D03*
X151827000Y-86106000D03*
X151827000Y-84836000D03*
X151827000Y-83566000D03*
%TD*%
D20*
%TO.C,C109*%
X116807000Y-99060000D03*
X114907000Y-99060000D03*
%TD*%
D19*
%TO.C,U103*%
X132653000Y-113030000D03*
X132653000Y-114300000D03*
X132653000Y-115570000D03*
X132653000Y-116840000D03*
X132653000Y-118110000D03*
X132653000Y-119380000D03*
X132653000Y-120650000D03*
X137603000Y-120650000D03*
X137603000Y-119380000D03*
X137603000Y-118110000D03*
X137603000Y-116840000D03*
X137603000Y-115570000D03*
X137603000Y-114300000D03*
X137603000Y-113030000D03*
%TD*%
D20*
%TO.C,C112*%
X158765000Y-129667000D03*
X156865000Y-129667000D03*
%TD*%
D15*
%TO.C,R135*%
X109323500Y-99060000D03*
X111148500Y-99060000D03*
%TD*%
D11*
%TO.C,R140*%
X144780000Y-118768500D03*
X144780000Y-116943500D03*
%TD*%
%TO.C,R111*%
X147828000Y-94996000D03*
X147828000Y-93171000D03*
%TD*%
D21*
%TO.C,R115*%
X136929500Y-84709000D03*
X135104500Y-84709000D03*
%TD*%
D20*
%TO.C,C104*%
X124394000Y-97536000D03*
X122494000Y-97536000D03*
%TD*%
D15*
%TO.C,R137*%
X140819500Y-116840000D03*
X142644500Y-116840000D03*
%TD*%
%TO.C,R107*%
X124563500Y-99568000D03*
X126388500Y-99568000D03*
%TD*%
D13*
%TO.C,R129*%
X153000000Y-100087500D03*
X153000000Y-101912500D03*
%TD*%
D22*
%TO.C,C103*%
X129032000Y-89408000D03*
X129032000Y-91308000D03*
%TD*%
D21*
%TO.C,R126*%
X116769500Y-97028000D03*
X114944500Y-97028000D03*
%TD*%
D23*
%TO.C,H2*%
X166243000Y-86233000D03*
D24*
X166243000Y-86233000D03*
%TD*%
D13*
%TO.C,R127*%
X159004000Y-92051500D03*
X159004000Y-93876500D03*
%TD*%
D21*
%TO.C,R113*%
X128928500Y-101600000D03*
X127103500Y-101600000D03*
%TD*%
D11*
%TO.C,R141*%
X142748000Y-129944500D03*
X142748000Y-128119500D03*
%TD*%
D19*
%TO.C,U112*%
X132653000Y-126111000D03*
X132653000Y-127381000D03*
X132653000Y-128651000D03*
X132653000Y-129921000D03*
X137603000Y-129921000D03*
X137603000Y-128651000D03*
X137603000Y-127381000D03*
X137603000Y-126111000D03*
%TD*%
D11*
%TO.C,R138*%
X155448000Y-120800500D03*
X155448000Y-118975500D03*
%TD*%
D25*
%TO.C,U109*%
X167050000Y-119737000D03*
D26*
X166962500Y-118237000D03*
D25*
X167050000Y-116737000D03*
%TD*%
D27*
%TO.C,CR106*%
X140617000Y-84074000D03*
X144117000Y-84074000D03*
%TD*%
D21*
%TO.C,R110*%
X143557000Y-92964000D03*
X141732000Y-92964000D03*
%TD*%
D13*
%TO.C,R136*%
X140716000Y-122531500D03*
X140716000Y-124356500D03*
%TD*%
D19*
%TO.C,U105*%
X147385000Y-115570000D03*
X147385000Y-116840000D03*
X147385000Y-118110000D03*
X147385000Y-119380000D03*
X147385000Y-120650000D03*
X147385000Y-121920000D03*
X147385000Y-123190000D03*
X152335000Y-123190000D03*
X152335000Y-121920000D03*
X152335000Y-120650000D03*
X152335000Y-119380000D03*
X152335000Y-118110000D03*
X152335000Y-116840000D03*
X152335000Y-115570000D03*
%TD*%
D25*
%TO.C,U108*%
X160273000Y-126595000D03*
D26*
X160185500Y-125095000D03*
D25*
X160273000Y-123595000D03*
%TD*%
D22*
%TO.C,C107*%
X122461000Y-99634000D03*
X122461000Y-101534000D03*
%TD*%
D13*
%TO.C,R112*%
X128524000Y-97131500D03*
X128524000Y-98956500D03*
%TD*%
D28*
%TO.C,CR105*%
X128221500Y-83058000D03*
X130096500Y-83058000D03*
%TD*%
D15*
%TO.C,R133*%
X105767500Y-99060000D03*
X107592500Y-99060000D03*
%TD*%
%TO.C,R124*%
X118604000Y-101600000D03*
X120429000Y-101600000D03*
%TD*%
D29*
%TO.C,CR104*%
X141925000Y-89759000D03*
X143825000Y-89759000D03*
X142875000Y-87884000D03*
%TD*%
D13*
%TO.C,R101*%
X115824000Y-86971500D03*
X115824000Y-88796500D03*
%TD*%
D16*
%TO.C,J1*%
X96520000Y-86360000D03*
D17*
X93980000Y-83820000D03*
X93980000Y-88900000D03*
X99060000Y-83820000D03*
X99060000Y-88900000D03*
%TD*%
D21*
%TO.C,R114*%
X134262500Y-82677000D03*
X132437500Y-82677000D03*
%TD*%
D11*
%TO.C,R120*%
X135128000Y-109624500D03*
X135128000Y-107799500D03*
%TD*%
D30*
%TO.C,CR108*%
X102448000Y-91440000D03*
X106848000Y-91440000D03*
%TD*%
D13*
%TO.C,R102*%
X114808000Y-91035500D03*
X114808000Y-92860500D03*
%TD*%
D21*
%TO.C,R122*%
X140612500Y-106680000D03*
X138787500Y-106680000D03*
%TD*%
D11*
%TO.C,R142*%
X145698000Y-129944500D03*
X145698000Y-128119500D03*
%TD*%
D10*
%TO.C,C122*%
X102174000Y-99060000D03*
X104074000Y-99060000D03*
%TD*%
D31*
%TO.C,CR102*%
X131798000Y-85852000D03*
X128298000Y-85852000D03*
%TD*%
D11*
%TO.C,R105*%
X144780000Y-99869000D03*
X144780000Y-98044000D03*
%TD*%
D32*
%TO.C,T101*%
X112334000Y-86614000D03*
X112334000Y-87884000D03*
X112334000Y-89154000D03*
X109154000Y-89154000D03*
X109154000Y-86614000D03*
%TD*%
D11*
%TO.C,R144*%
X151598000Y-129944500D03*
X151598000Y-128119500D03*
%TD*%
D23*
%TO.C,H1*%
X166243000Y-127635000D03*
D24*
X166243000Y-127635000D03*
%TD*%
D21*
%TO.C,R121*%
X143533500Y-112395000D03*
X141708500Y-112395000D03*
%TD*%
D22*
%TO.C,C127*%
X151511000Y-103444000D03*
X151511000Y-105344000D03*
%TD*%
D23*
%TO.C,H3*%
X96393000Y-127635000D03*
D24*
X96393000Y-127635000D03*
%TD*%
D20*
%TO.C,C108*%
X120363000Y-99060000D03*
X118463000Y-99060000D03*
%TD*%
%TO.C,C111*%
X160223000Y-121412000D03*
X158323000Y-121412000D03*
%TD*%
D22*
%TO.C,C114*%
X161671000Y-117287000D03*
X161671000Y-119187000D03*
%TD*%
D18*
%TO.C,C106*%
X140716000Y-110678000D03*
X140716000Y-108778000D03*
%TD*%
D13*
%TO.C,R123*%
X155575000Y-109069500D03*
X155575000Y-110894500D03*
%TD*%
D15*
%TO.C,R125*%
X114944500Y-101600000D03*
X116769500Y-101600000D03*
%TD*%
D21*
%TO.C,R108*%
X141628500Y-100584000D03*
X139803500Y-100584000D03*
%TD*%
D33*
%TO.C,U110*%
X105791000Y-106807000D03*
D34*
X105791000Y-125857000D03*
X124841000Y-125857000D03*
X124841000Y-116332000D03*
X124841000Y-106807000D03*
%TD*%
D19*
%TO.C,U107*%
X131637000Y-98298000D03*
X131637000Y-99568000D03*
X131637000Y-100838000D03*
X131637000Y-102108000D03*
X131637000Y-103378000D03*
X131637000Y-104648000D03*
X131637000Y-105918000D03*
X136587000Y-105918000D03*
X136587000Y-104648000D03*
X136587000Y-103378000D03*
X136587000Y-102108000D03*
X136587000Y-100838000D03*
X136587000Y-99568000D03*
X136587000Y-98298000D03*
%TD*%
D21*
%TO.C,R109*%
X141628500Y-98552000D03*
X139803500Y-98552000D03*
%TD*%
D19*
%TO.C,U101*%
X120461000Y-84582000D03*
X120461000Y-85852000D03*
X120461000Y-87122000D03*
X120461000Y-88392000D03*
X120461000Y-89662000D03*
X120461000Y-90932000D03*
X120461000Y-92202000D03*
X125411000Y-92202000D03*
X125411000Y-90932000D03*
X125411000Y-89662000D03*
X125411000Y-88392000D03*
X125411000Y-87122000D03*
X125411000Y-85852000D03*
X125411000Y-84582000D03*
%TD*%
D35*
%TO.C,CBL1*%
X164084000Y-95758000D03*
D34*
X166624000Y-95758000D03*
X164084000Y-98298000D03*
X166624000Y-98298000D03*
X164084000Y-100838000D03*
X166624000Y-100838000D03*
X164084000Y-103378000D03*
X166624000Y-103378000D03*
X164084000Y-105918000D03*
X166624000Y-105918000D03*
%TD*%
D11*
%TO.C,R116*%
X131699000Y-96543500D03*
X131699000Y-94718500D03*
%TD*%
D28*
%TO.C,CR103*%
X141600500Y-95504000D03*
X143475500Y-95504000D03*
%TD*%
D29*
%TO.C,CR101*%
X128082000Y-94917500D03*
X129982000Y-94917500D03*
X129032000Y-93042500D03*
%TD*%
D15*
%TO.C,R104*%
X122023500Y-94996000D03*
X123848500Y-94996000D03*
%TD*%
D11*
%TO.C,R128*%
X149479000Y-105306500D03*
X149479000Y-103481500D03*
%TD*%
D20*
%TO.C,C113*%
X169164000Y-113665000D03*
X167264000Y-113665000D03*
%TD*%
D16*
%TO.C,P2*%
X96520000Y-111760000D03*
D17*
X93980000Y-109220000D03*
X93980000Y-114300000D03*
X99060000Y-109220000D03*
X99060000Y-114300000D03*
%TD*%
D15*
%TO.C,R134*%
X105767500Y-97028000D03*
X107592500Y-97028000D03*
%TD*%
D10*
%TO.C,C102*%
X105730000Y-101092000D03*
X107630000Y-101092000D03*
%TD*%
D19*
%TO.C,U102*%
X134177000Y-87630000D03*
X134177000Y-88900000D03*
X134177000Y-90170000D03*
X134177000Y-91440000D03*
X134177000Y-92710000D03*
X134177000Y-93980000D03*
X134177000Y-95250000D03*
X139127000Y-95250000D03*
X139127000Y-93980000D03*
X139127000Y-92710000D03*
X139127000Y-91440000D03*
X139127000Y-90170000D03*
X139127000Y-88900000D03*
X139127000Y-87630000D03*
%TD*%
M02*
