%TF.GenerationSoftware,KiCad,Pcbnew,8.0.7*%
%TF.CreationDate,2024-12-25T18:39:51+01:00*%
%TF.ProjectId,33120a,33333132-3061-42e6-9b69-6361645f7063,rev?*%
%TF.SameCoordinates,Original*%
%TF.FileFunction,Soldermask,Bot*%
%TF.FilePolarity,Negative*%
%FSLAX46Y46*%
G04 Gerber Fmt 4.6, Leading zero omitted, Abs format (unit mm)*
G04 Created by KiCad (PCBNEW 8.0.7) date 2024-12-25 18:39:51*
%MOMM*%
%LPD*%
G01*
G04 APERTURE LIST*
G04 Aperture macros list*
%AMRoundRect*
0 Rectangle with rounded corners*
0 $1 Rounding radius*
0 $2 $3 $4 $5 $6 $7 $8 $9 X,Y pos of 4 corners*
0 Add a 4 corners polygon primitive as box body*
4,1,4,$2,$3,$4,$5,$6,$7,$8,$9,$2,$3,0*
0 Add four circle primitives for the rounded corners*
1,1,$1+$1,$2,$3*
1,1,$1+$1,$4,$5*
1,1,$1+$1,$6,$7*
1,1,$1+$1,$8,$9*
0 Add four rect primitives between the rounded corners*
20,1,$1+$1,$2,$3,$4,$5,0*
20,1,$1+$1,$4,$5,$6,$7,0*
20,1,$1+$1,$6,$7,$8,$9,0*
20,1,$1+$1,$8,$9,$2,$3,0*%
G04 Aperture macros list end*
%ADD10C,2.050000*%
%ADD11C,2.250000*%
%ADD12C,3.600000*%
%ADD13C,5.600000*%
%ADD14R,1.700000X1.700000*%
%ADD15C,1.700000*%
%ADD16RoundRect,0.250000X-0.600000X-0.600000X0.600000X-0.600000X0.600000X0.600000X-0.600000X0.600000X0*%
%ADD17RoundRect,0.250000X0.250000X0.475000X-0.250000X0.475000X-0.250000X-0.475000X0.250000X-0.475000X0*%
%ADD18RoundRect,0.250000X-0.250000X-0.475000X0.250000X-0.475000X0.250000X0.475000X-0.250000X0.475000X0*%
%ADD19RoundRect,0.250000X-0.475000X0.250000X-0.475000X-0.250000X0.475000X-0.250000X0.475000X0.250000X0*%
%ADD20RoundRect,0.250000X0.475000X-0.250000X0.475000X0.250000X-0.475000X0.250000X-0.475000X-0.250000X0*%
G04 APERTURE END LIST*
D10*
%TO.C,J2*%
X96520000Y-99060000D03*
D11*
X93980000Y-96520000D03*
X93980000Y-101600000D03*
X99060000Y-96520000D03*
X99060000Y-101600000D03*
%TD*%
D12*
%TO.C,H2*%
X166243000Y-86233000D03*
D13*
X166243000Y-86233000D03*
%TD*%
D10*
%TO.C,J1*%
X96520000Y-86360000D03*
D11*
X93980000Y-83820000D03*
X93980000Y-88900000D03*
X99060000Y-83820000D03*
X99060000Y-88900000D03*
%TD*%
D12*
%TO.C,H1*%
X166243000Y-127635000D03*
D13*
X166243000Y-127635000D03*
%TD*%
D12*
%TO.C,H3*%
X96393000Y-127635000D03*
D13*
X96393000Y-127635000D03*
%TD*%
D14*
%TO.C,U110*%
X105791000Y-106807000D03*
D15*
X105791000Y-125857000D03*
X124841000Y-125857000D03*
X124841000Y-116332000D03*
X124841000Y-106807000D03*
%TD*%
D16*
%TO.C,CBL1*%
X164084000Y-95758000D03*
D15*
X166624000Y-95758000D03*
X164084000Y-98298000D03*
X166624000Y-98298000D03*
X164084000Y-100838000D03*
X166624000Y-100838000D03*
X164084000Y-103378000D03*
X166624000Y-103378000D03*
X164084000Y-105918000D03*
X166624000Y-105918000D03*
%TD*%
D10*
%TO.C,P2*%
X96520000Y-111760000D03*
D11*
X93980000Y-109220000D03*
X93980000Y-114300000D03*
X99060000Y-109220000D03*
X99060000Y-114300000D03*
%TD*%
D17*
%TO.C,C129*%
X134808000Y-119634000D03*
X132908000Y-119634000D03*
%TD*%
D18*
%TO.C,C131*%
X154117000Y-115697000D03*
X156017000Y-115697000D03*
%TD*%
D19*
%TO.C,C130*%
X152019000Y-84648000D03*
X152019000Y-86548000D03*
%TD*%
D17*
%TO.C,C115*%
X142174000Y-90297000D03*
X140274000Y-90297000D03*
%TD*%
D18*
%TO.C,C124*%
X155260000Y-117729000D03*
X157160000Y-117729000D03*
%TD*%
D17*
%TO.C,C110*%
X155450000Y-108500000D03*
X153550000Y-108500000D03*
%TD*%
D18*
%TO.C,C120*%
X123637000Y-90805000D03*
X125537000Y-90805000D03*
%TD*%
%TO.C,C134*%
X136718000Y-103505000D03*
X138618000Y-103505000D03*
%TD*%
D17*
%TO.C,C136*%
X105344000Y-121412000D03*
X103444000Y-121412000D03*
%TD*%
D20*
%TO.C,C132*%
X151384000Y-112964000D03*
X151384000Y-111064000D03*
%TD*%
D17*
%TO.C,C119*%
X125537000Y-82931000D03*
X123637000Y-82931000D03*
%TD*%
%TO.C,C137*%
X105344000Y-123444000D03*
X103444000Y-123444000D03*
%TD*%
D18*
%TO.C,C118*%
X122494000Y-86233000D03*
X124394000Y-86233000D03*
%TD*%
D19*
%TO.C,C126*%
X133096000Y-127381000D03*
X133096000Y-129281000D03*
%TD*%
%TO.C,C117*%
X154051000Y-84648000D03*
X154051000Y-86548000D03*
%TD*%
D17*
%TO.C,C133*%
X131633000Y-103632000D03*
X129733000Y-103632000D03*
%TD*%
%TO.C,C128*%
X140904000Y-92329000D03*
X139004000Y-92329000D03*
%TD*%
D20*
%TO.C,C125*%
X153416000Y-112964000D03*
X153416000Y-111064000D03*
%TD*%
D19*
%TO.C,C135*%
X131064000Y-127381000D03*
X131064000Y-129281000D03*
%TD*%
D17*
%TO.C,C116*%
X134808000Y-117602000D03*
X132908000Y-117602000D03*
%TD*%
M02*
