M48
; DRILL file {KiCad 8.0.7} date 2024-12-25T18:39:45+0100
; FORMAT={-:-/ absolute / inch / decimal}
; #@! TF.CreationDate,2024-12-25T18:39:45+01:00
; #@! TF.GenerationSoftware,Kicad,Pcbnew,8.0.7
; #@! TF.FileFunction,Plated,1,2,PTH
FMAT,2
INCH
; #@! TA.AperFunction,Plated,PTH,ViaDrill
T1C0.0157
; #@! TA.AperFunction,Plated,PTH,ViaDrill
T2C0.0276
; #@! TA.AperFunction,Plated,PTH,ComponentDrill
T3C0.0394
; #@! TA.AperFunction,Plated,PTH,ComponentDrill
T4C0.0591
; #@! TA.AperFunction,Plated,PTH,ComponentDrill
T5C0.0669
; #@! TA.AperFunction,Plated,PTH,ComponentDrill
T6C0.1260
%
G90
G05
T1
X4.0726Y-4.86
X4.4226Y-3.51
X4.46Y-3.8
X4.6Y-3.6559
X4.6613Y-3.82
X4.8226Y-3.395
X4.9374Y-3.53
X4.94Y-3.3229
X4.9759Y-3.92
X5.0041Y-4.0085
X5.0426Y-3.7369
X5.0511Y-3.38
X5.06Y-3.825
X5.11Y-4.315
X5.165Y-4.705
X5.175Y-3.315
X5.1826Y-4.02
X5.19Y-3.44
X5.19Y-3.58
X5.1929Y-3.6228
X5.22Y-3.6515
X5.24Y-5.015
X5.26Y-3.92
X5.27Y-3.3229
X5.2826Y-3.75
X5.29Y-4.04
X5.315Y-3.8915
X5.32Y-5.095
X5.3353Y-3.7047
X5.34Y-3.455
X5.355Y-3.29
X5.355Y-4.455
X5.3592Y-4.5795
X5.36Y-3.76
X5.3774Y-4.02
X5.385Y-3.55
X5.415Y-3.66
X5.4172Y-3.3878
X5.4174Y-5.065
X5.48Y-3.31
X5.4977Y-4.6823
X5.5Y-5.02
X5.5209Y-3.7834
X5.5378Y-3.7232
X5.54Y-3.38
X5.5418Y-3.4982
X5.56Y-4.66
X5.58Y-4.18
X5.6179Y-3.7017
X5.62Y-5.0365
X5.6548Y-4.1748
X5.6739Y-3.31
X5.7Y-3.86
X5.7Y-4.0719
X5.7015Y-3.655
X5.72Y-3.4
X5.72Y-3.46
X5.7215Y-4.2426
X5.73Y-3.625
X5.75Y-4.165
X5.7575Y-3.8575
X5.76Y-3.98
X5.77Y-4.37
X5.7826Y-3.49
X5.8187Y-4.1779
X5.82Y-3.74
X5.8473Y-3.98
X5.8523Y-5.0441
X5.8525Y-3.4575
X5.86Y-4.62
X5.86Y-4.84
X5.875Y-4.375
X5.885Y-4.0741
X5.8998Y-4.7602
X5.9085Y-3.42
X5.92Y-4.86
X5.925Y-3.345
X5.925Y-4.2426
X5.9335Y-3.5233
X5.9358Y-4.6392
X5.94Y-3.815
X5.96Y-3.7
X5.96Y-4.3726
X5.965Y-4.1041
X5.9684Y-5.1159
X5.9764Y-4.244
X5.9974Y-4.75
X6.045Y-3.3
X6.06Y-4.62
X6.065Y-3.4074
X6.0676Y-4.555
X6.08Y-4.1026
X6.09Y-4.445
X6.125Y-4.415
X6.1667Y-4.06
X6.19Y-4.695
X6.26Y-3.565
X6.275Y-3.49
X6.28Y-4.17
X6.3065Y-4.925
X6.31Y-4.9841
X6.3115Y-3.66
X6.365Y-4.6176
X6.5768Y-4.7141
X6.5852Y-4.475
T2
X6.15Y-4.105
X6.265Y-4.7
T3
X4.165Y-4.205
X4.165Y-4.955
X4.915Y-4.205
X4.915Y-4.58
X4.915Y-4.955
X6.46Y-3.77
X6.46Y-3.87
X6.46Y-3.97
X6.46Y-4.07
X6.46Y-4.17
X6.56Y-3.77
X6.56Y-3.87
X6.56Y-3.97
X6.56Y-4.07
X6.56Y-4.17
T4
X3.8Y-3.4
X3.8Y-3.9
X3.8Y-4.4
T5
X3.7Y-3.3
X3.7Y-3.5
X3.7Y-3.8
X3.7Y-4.0
X3.7Y-4.3
X3.7Y-4.5
X3.9Y-3.3
X3.9Y-3.5
X3.9Y-3.8
X3.9Y-4.0
X3.9Y-4.3
X3.9Y-4.5
T6
X3.795Y-5.025
X6.545Y-3.395
X6.545Y-5.025
M30
