%TF.GenerationSoftware,KiCad,Pcbnew,8.0.7*%
%TF.CreationDate,2024-12-25T18:39:50+01:00*%
%TF.ProjectId,33120a,33333132-3061-42e6-9b69-6361645f7063,rev?*%
%TF.SameCoordinates,Original*%
%TF.FileFunction,Paste,Bot*%
%TF.FilePolarity,Positive*%
%FSLAX46Y46*%
G04 Gerber Fmt 4.6, Leading zero omitted, Abs format (unit mm)*
G04 Created by KiCad (PCBNEW 8.0.7) date 2024-12-25 18:39:50*
%MOMM*%
%LPD*%
G01*
G04 APERTURE LIST*
G04 Aperture macros list*
%AMRoundRect*
0 Rectangle with rounded corners*
0 $1 Rounding radius*
0 $2 $3 $4 $5 $6 $7 $8 $9 X,Y pos of 4 corners*
0 Add a 4 corners polygon primitive as box body*
4,1,4,$2,$3,$4,$5,$6,$7,$8,$9,$2,$3,0*
0 Add four circle primitives for the rounded corners*
1,1,$1+$1,$2,$3*
1,1,$1+$1,$4,$5*
1,1,$1+$1,$6,$7*
1,1,$1+$1,$8,$9*
0 Add four rect primitives between the rounded corners*
20,1,$1+$1,$2,$3,$4,$5,0*
20,1,$1+$1,$4,$5,$6,$7,0*
20,1,$1+$1,$6,$7,$8,$9,0*
20,1,$1+$1,$8,$9,$2,$3,0*%
G04 Aperture macros list end*
%ADD10RoundRect,0.250000X0.250000X0.475000X-0.250000X0.475000X-0.250000X-0.475000X0.250000X-0.475000X0*%
%ADD11RoundRect,0.250000X-0.250000X-0.475000X0.250000X-0.475000X0.250000X0.475000X-0.250000X0.475000X0*%
%ADD12RoundRect,0.250000X-0.475000X0.250000X-0.475000X-0.250000X0.475000X-0.250000X0.475000X0.250000X0*%
%ADD13RoundRect,0.250000X0.475000X-0.250000X0.475000X0.250000X-0.475000X0.250000X-0.475000X-0.250000X0*%
G04 APERTURE END LIST*
D10*
%TO.C,C129*%
X134808000Y-119634000D03*
X132908000Y-119634000D03*
%TD*%
D11*
%TO.C,C131*%
X154117000Y-115697000D03*
X156017000Y-115697000D03*
%TD*%
D12*
%TO.C,C130*%
X152019000Y-84648000D03*
X152019000Y-86548000D03*
%TD*%
D10*
%TO.C,C115*%
X142174000Y-90297000D03*
X140274000Y-90297000D03*
%TD*%
D11*
%TO.C,C124*%
X155260000Y-117729000D03*
X157160000Y-117729000D03*
%TD*%
D10*
%TO.C,C110*%
X155450000Y-108500000D03*
X153550000Y-108500000D03*
%TD*%
D11*
%TO.C,C120*%
X123637000Y-90805000D03*
X125537000Y-90805000D03*
%TD*%
%TO.C,C134*%
X136718000Y-103505000D03*
X138618000Y-103505000D03*
%TD*%
D10*
%TO.C,C136*%
X105344000Y-121412000D03*
X103444000Y-121412000D03*
%TD*%
D13*
%TO.C,C132*%
X151384000Y-112964000D03*
X151384000Y-111064000D03*
%TD*%
D10*
%TO.C,C119*%
X125537000Y-82931000D03*
X123637000Y-82931000D03*
%TD*%
%TO.C,C137*%
X105344000Y-123444000D03*
X103444000Y-123444000D03*
%TD*%
D11*
%TO.C,C118*%
X122494000Y-86233000D03*
X124394000Y-86233000D03*
%TD*%
D12*
%TO.C,C126*%
X133096000Y-127381000D03*
X133096000Y-129281000D03*
%TD*%
%TO.C,C117*%
X154051000Y-84648000D03*
X154051000Y-86548000D03*
%TD*%
D10*
%TO.C,C133*%
X131633000Y-103632000D03*
X129733000Y-103632000D03*
%TD*%
%TO.C,C128*%
X140904000Y-92329000D03*
X139004000Y-92329000D03*
%TD*%
D13*
%TO.C,C125*%
X153416000Y-112964000D03*
X153416000Y-111064000D03*
%TD*%
D12*
%TO.C,C135*%
X131064000Y-127381000D03*
X131064000Y-129281000D03*
%TD*%
D10*
%TO.C,C116*%
X134808000Y-117602000D03*
X132908000Y-117602000D03*
%TD*%
M02*
